<svg width="146" height="52" viewBox="0 0 146 52" fill="none" xmlns="http://www.w3.org/2000/svg">
<path d="M42.56 22.7239C42.96 21.5239 43.67 20.6139 44.69 19.9939C45.71 19.3539 47.01 19.0339 48.59 19.0339V20.4439H48.14C46.54 20.4439 45.21 20.9039 44.15 21.8239C43.09 22.7239 42.56 24.2039 42.56 26.2639V35.6539H41.21V19.3639H42.56V22.7239ZM66.3683 26.4139C66.3683 27.1339 66.3483 27.6739 66.3083 28.0339H52.2383C52.2783 29.4939 52.5983 30.7239 53.1983 31.7239C53.7983 32.7239 54.5883 33.4739 55.5683 33.9739C56.5483 34.4739 57.6183 34.7239 58.7783 34.7239C60.3783 34.7239 61.7183 34.3339 62.7983 33.5539C63.8783 32.7539 64.5583 31.6739 64.8383 30.3139H66.2483C65.9283 31.9739 65.1083 33.3239 63.7883 34.3639C62.4683 35.3839 60.7983 35.8939 58.7783 35.8939C57.2583 35.8939 55.8983 35.5539 54.6983 34.8739C53.4983 34.1939 52.5583 33.2239 51.8783 31.9639C51.1983 30.6839 50.8583 29.1939 50.8583 27.4939C50.8583 25.7939 51.1883 24.3139 51.8483 23.0539C52.5283 21.7939 53.4683 20.8339 54.6683 20.1739C55.8683 19.4939 57.2383 19.1539 58.7783 19.1539C60.3383 19.1539 61.6883 19.4939 62.8283 20.1739C63.9883 20.8339 64.8683 21.7239 65.4683 22.8439C66.0683 23.9439 66.3683 25.1339 66.3683 26.4139ZM65.0183 26.9239C65.0783 25.4839 64.8183 24.2639 64.2383 23.2639C63.6783 22.2639 62.9083 21.5239 61.9283 21.0439C60.9483 20.5439 59.8883 20.2939 58.7483 20.2939C57.6083 20.2939 56.5483 20.5439 55.5683 21.0439C54.6083 21.5239 53.8183 22.2639 53.1983 23.2639C52.5983 24.2639 52.2783 25.4839 52.2383 26.9239H65.0183ZM69.6083 27.4939C69.6083 25.7939 69.9383 24.3139 70.5983 23.0539C71.2783 21.7939 72.2083 20.8339 73.3883 20.1739C74.5883 19.4939 75.9583 19.1539 77.4983 19.1539C79.5383 19.1539 81.2083 19.6639 82.5083 20.6839C83.8283 21.7039 84.6483 23.0739 84.9683 24.7939H83.5583C83.2983 23.3939 82.6183 22.2939 81.5183 21.4939C80.4383 20.6939 79.0983 20.2939 77.4983 20.2939C76.2983 20.2939 75.2083 20.5639 74.2283 21.1039C73.2483 21.6239 72.4583 22.4339 71.8583 23.5339C71.2783 24.6139 70.9883 25.9339 70.9883 27.4939C70.9883 29.0739 71.2783 30.4039 71.8583 31.4839C72.4583 32.5639 73.2483 33.3739 74.2283 33.9139C75.2083 34.4539 76.2983 34.7239 77.4983 34.7239C79.0983 34.7239 80.4383 34.3239 81.5183 33.5239C82.6183 32.7239 83.2983 31.6239 83.5583 30.2239H84.9683C84.6483 31.9239 83.8283 33.2939 82.5083 34.3339C81.1883 35.3739 79.5183 35.8939 77.4983 35.8939C75.9583 35.8939 74.5883 35.5539 73.3883 34.8739C72.2083 34.1939 71.2783 33.2239 70.5983 31.9639C69.9383 30.6839 69.6083 29.1939 69.6083 27.4939ZM90.4311 22.7239C90.8311 21.5239 91.5411 20.6139 92.5611 19.9939C93.5811 19.3539 94.8811 19.0339 96.4611 19.0339V20.4439H96.0111C94.4111 20.4439 93.0811 20.9039 92.0211 21.8239C90.9611 22.7239 90.4311 24.2039 90.4311 26.2639V35.6539H89.0811V19.3639H90.4311V22.7239ZM113.339 19.3639V35.6539H111.989V32.1139C111.529 33.3539 110.759 34.3039 109.679 34.9639C108.619 35.6039 107.399 35.9239 106.019 35.9239C104.079 35.9239 102.489 35.3339 101.249 34.1539C100.029 32.9539 99.4194 31.1839 99.4194 28.8439V19.3639H100.739V28.7539C100.739 30.6939 101.229 32.1839 102.209 33.2239C103.189 34.2439 104.519 34.7539 106.199 34.7539C107.959 34.7539 109.359 34.1939 110.399 33.0739C111.459 31.9539 111.989 30.2939 111.989 28.0939V19.3639H113.339ZM120.271 20.5339V31.3039C120.271 32.5039 120.491 33.3339 120.931 33.7939C121.371 34.2339 122.151 34.4539 123.271 34.4539H125.101V35.6539H123.061C121.641 35.6539 120.591 35.3239 119.911 34.6639C119.251 33.9839 118.921 32.8639 118.921 31.3039V20.5339H116.461V19.3639H118.921V15.2239H120.271V19.3639H125.101V20.5339H120.271ZM135.831 35.8939C134.311 35.8939 132.941 35.5539 131.721 34.8739C130.501 34.1939 129.541 33.2239 128.841 31.9639C128.161 30.6839 127.821 29.1939 127.821 27.4939C127.821 25.8139 128.171 24.3439 128.871 23.0839C129.571 21.8039 130.531 20.8339 131.751 20.1739C132.991 19.4939 134.371 19.1539 135.891 19.1539C137.411 19.1539 138.781 19.4939 140.001 20.1739C141.221 20.8339 142.171 21.7939 142.851 23.0539C143.551 24.3139 143.901 25.7939 143.901 27.4939C143.901 29.1939 143.551 30.6839 142.851 31.9639C142.151 33.2239 141.181 34.1939 139.941 34.8739C138.721 35.5539 137.351 35.8939 135.831 35.8939ZM135.831 34.6939C137.011 34.6939 138.111 34.4339 139.131 33.9139C140.171 33.3739 141.001 32.5639 141.621 31.4839C142.241 30.4039 142.551 29.0739 142.551 27.4939C142.551 25.9339 142.241 24.6139 141.621 23.5339C141.001 22.4539 140.181 21.6539 139.161 21.1339C138.141 20.5939 137.041 20.3239 135.861 20.3239C134.681 20.3239 133.581 20.5939 132.561 21.1339C131.561 21.6539 130.751 22.4539 130.131 23.5339C129.511 24.6139 129.201 25.9339 129.201 27.4939C129.201 29.0739 129.501 30.4039 130.101 31.4839C130.721 32.5639 131.531 33.3739 132.531 33.9139C133.551 34.4339 134.651 34.6939 135.831 34.6939Z" fill="url(#paint0_linear_800_154)"/>
<path d="M0 12.9423L18.7125 31.6548C20.7682 33.7105 21.9231 36.4986 21.9231 39.4058V51.3077L3.21056 32.5952C1.15488 30.5395 0 27.7514 0 24.8442V12.9423Z" fill="url(#paint1_linear_800_154)"/>
<path d="M1.56332e-08 12.9423L12.7885 0.153864L15.999 3.36442C20.2798 7.64517 20.2798 14.5856 15.999 18.8664L10.9615 23.9039L1.56332e-08 12.9423Z" fill="url(#paint2_linear_800_154)"/>
<defs>
<linearGradient id="paint0_linear_800_154" x1="38.75" y1="2.65387" x2="46.7958" y2="61.2429" gradientUnits="userSpaceOnUse">
<stop stop-color="#479DEC"/>
<stop offset="1" stop-color="#1F5486"/>
</linearGradient>
<linearGradient id="paint1_linear_800_154" x1="0" y1="12.9423" x2="21.9231" y2="51.3077" gradientUnits="userSpaceOnUse">
<stop stop-color="#479DEC"/>
<stop offset="1" stop-color="#1F5486"/>
</linearGradient>
<linearGradient id="paint2_linear_800_154" x1="21.9231" y1="12.9423" x2="4.49271" y2="4.09305" gradientUnits="userSpaceOnUse">
<stop stop-color="#479DEC"/>
<stop offset="1" stop-color="#1F5486"/>
</linearGradient>
</defs>
</svg>
